<?xml version="1.0" encoding="UTF-8"?>
<svg width="16" height="16" viewBox="0 0 16 16" xmlns="http://www.w3.org/2000/svg">
    <path fill="#C5C5C5" d="M11.5 5.21c.17-.27.29-.57.35-.89l1.61.54a.5.5 0 0 0 .63-.3l.36-1.05a.5.5 0 0 0-.3-.63l-1.6-.53c.02-.13.03-.27.03-.41a2.5 2.5 0 0 0-5 0c0 .14.01.28.03.41l-1.6.53a.5.5 0 0 0-.3.63l.35 1.05a.5.5 0 0 0 .63.3l1.61-.54c.06.32.18.62.35.89L7.2 7.38a.5.5 0 0 0 0 .71l1.06 1.06a.5.5 0 0 0 .71 0l1.15-1.15c.17.27.29.57.35.89l-1.61.54a.5.5 0 0 0-.3.63l.35 1.05a.5.5 0 0 0 .63.3l1.6-.53c-.02.13-.03.27-.03.41a2.5 2.5 0 1 0 5 0c0-.14-.01-.28-.03-.41l1.6-.53a.5.5 0 0 0 .3-.63l-.35-1.05a.5.5 0 0 0-.63-.3l-1.61.54a2.45 2.45 0 0 0-.35-.89l1.15-1.15a.5.5 0 0 0 0-.71L13.2 5.21l-1.7 1.7z"/>
</svg>